<svg xmlns="http://www.w3.org/2000/svg" id="prefix__logo" width="120" height="22.174" viewBox="0 0 120 22.174">
    <defs>
        <style>
            .prefix__cls-1{fill:#ff4e41}
        </style>
    </defs>
    <path id="prefix__패스_1" d="M60.269 62.187l-6.026-16.356h-.013c-.014-.045-.019-.089-.034-.135-.029-.079-.074-.148-.11-.223l-.005-.011a2.833 2.833 0 00-.273-.459l-.012-.015a2.815 2.815 0 00-.345-.386l-.046-.041a2.867 2.867 0 00-.384-.288c-.031-.02-.063-.037-.095-.055a2.807 2.807 0 00-.4-.193c-.022-.009-.04-.022-.062-.03s-.054-.011-.08-.02a2.886 2.886 0 00-.381-.1c-.072-.014-.145-.024-.218-.032a3.122 3.122 0 00-.6 0c-.073.008-.145.018-.217.032a2.817 2.817 0 00-.383.1c-.026.008-.052.01-.078.02s-.039.021-.061.029a2.845 2.845 0 00-.407.194c-.031.018-.063.035-.093.054a2.819 2.819 0 00-.384.289l-.047.041a2.79 2.79 0 00-.342.382l-.017.022a2.728 2.728 0 00-.267.448l-.013.025c-.034.073-.077.14-.106.217-.017.046-.021.09-.034.135h-.013l-3.376 9.163-3.376-9.163h-.013c-.013-.045-.017-.089-.034-.135-.029-.077-.072-.144-.106-.218l-.018-.018a2.831 2.831 0 00-.268-.45l-.016-.02a2.8 2.8 0 00-.342-.383c-.015-.015-.031-.027-.047-.042a2.867 2.867 0 00-.384-.288c-.03-.019-.062-.036-.093-.054a2.925 2.925 0 00-.408-.194c-.021-.008-.039-.021-.061-.029s-.052-.011-.078-.02a2.842 2.842 0 00-.383-.1c-.073-.014-.145-.024-.217-.032a3.128 3.128 0 00-.6 0c-.073.008-.145.019-.218.032a2.867 2.867 0 00-.379.1c-.027.009-.054.01-.081.02s-.067.03-.1.044a2.614 2.614 0 00-.254.115 2.853 2.853 0 00-.257.149 2.761 2.761 0 00-.256.191l-.013.011a2.826 2.826 0 00-.855 1.189c-.015.046-.02.09-.034.135h-.013l-6.031 16.353a2.841 2.841 0 001.724 3.651 2.892 2.892 0 003.695-1.7l3.371-9.15 3.311 8.991.059.156a2.987 2.987 0 005.534 0l3.372-9.151 3.372 9.151a2.892 2.892 0 003.695 1.7 2.842 2.842 0 001.724-3.648z" class="prefix__cls-1" data-name="패스 1" transform="translate(-30.238 -43.837)"/>
    <g id="prefix__그룹_2" data-name="그룹 2" transform="translate(34.638 3.788)">
        <g id="prefix__그룹_1" data-name="그룹 1">
            <path id="prefix__패스_2" d="M96.637 61.358l-4.971-9.442a.809.809 0 00-.716-.432h-1.736a.6.6 0 00-.6.6v16.93a.5.5 0 00.5.495h1.832a.5.5 0 00.5-.495V57.9a.113.113 0 01.212-.053l3.95 7.293a.807.807 0 00.711.422h1.123a.808.808 0 00.714-.43L102 57.86a.113.113 0 01.213.052v11.1a.5.5 0 00.5.495h1.832a.5.5 0 00.5-.495V52.081a.6.6 0 00-.6-.6H102.7a.809.809 0 00-.72.438l-4.87 9.434a.268.268 0 01-.473.005z" class="prefix__cls-1" data-name="패스 2" transform="translate(-88.616 -51.359)"/>
            <path id="prefix__패스_3" d="M155.352 63.361a3.692 3.692 0 01-1.175 2.874 5.029 5.029 0 01-6.133 0 3.738 3.738 0 01-1.146-2.874V51.837a.371.371 0 00-.386-.353h-2.322a.371.371 0 00-.386.353v11.651a5.639 5.639 0 002.091 4.527 8.733 8.733 0 0010.432 0 5.608 5.608 0 002.121-4.527V51.837a.371.371 0 00-.386-.353h-2.324a.37.37 0 00-.385.353z" class="prefix__cls-1" data-name="패스 3" transform="translate(-107.313 -51.359)"/>
            <path id="prefix__패스_4" d="M182.094 53.226a8 8 0 00-5.4-1.7h-5.944a.831.831 0 00-.875.778V68.83a.831.831 0 00.875.778h5.944a7.992 7.992 0 005.4-1.7 5.786 5.786 0 001.917-3.485 25.22 25.22 0 00.206-3.968 23.7 23.7 0 00-.206-3.866 5.809 5.809 0 00-1.917-3.363zm-2.184 12.693a4.9 4.9 0 01-3.54 1.221h-2.713a.567.567 0 01-.6-.531v-12.09a.567.567 0 01.6-.531h2.713a4.9 4.9 0 013.54 1.221q1.121 1.068 1.121 5.24 0 4.402-1.121 5.47z" class="prefix__cls-1" data-name="패스 4" transform="translate(-116.148 -51.372)"/>
            <path id="prefix__패스_5" d="M201.083 51.939h-.324a1.53 1.53 0 00-1.424.929l-6.668 16.337a.4.4 0 00.39.545h2.284a.418.418 0 00.394-.266l1.109-2.968a.637.637 0 01.6-.4h6.929a.637.637 0 01.6.4l.345.9.789 2.078a.418.418 0 00.393.264h2.29a.4.4 0 00.387-.541l-6.671-16.342a1.529 1.529 0 00-1.423-.936zm-3.036 11.448l2.794-7.315a.159.159 0 01.294 0l2.686 7.316a.269.269 0 01-.264.355h-5.247a.269.269 0 01-.263-.356z" class="prefix__cls-1" data-name="패스 5" transform="translate(-123.845 -51.515)"/>
            <path id="prefix__패스_6" d="M132.108 56.2a5.392 5.392 0 00-1.655-2.975 7.322 7.322 0 00-5.157-1.933 7.228 7.228 0 00-5.13 1.933 5.317 5.317 0 00-1.682 2.975 26.835 26.835 0 00-.221 4.273 26.53 26.53 0 00.221 4.273 5.315 5.315 0 001.682 2.975 7 7 0 003.972 1.857 9.769 9.769 0 002.289 0 7.154 7.154 0 004.026-1.857 5.39 5.39 0 001.655-2.975 26.34 26.34 0 00.22-4.273 26.363 26.363 0 00-.22-4.273zm-2.979 8.087a3.559 3.559 0 01-.937 1.8 3.791 3.791 0 01-1.765.967 8.568 8.568 0 01-2.289 0 3.785 3.785 0 01-1.765-.967 3.561 3.561 0 01-.938-1.8 22.054 22.054 0 01-.22-3.815 21.57 21.57 0 01.22-3.789 3.436 3.436 0 01.938-1.806 3.977 3.977 0 012.927-1.117 3.888 3.888 0 012.9 1.119 3.435 3.435 0 01.937 1.806 21.466 21.466 0 01.221 3.789 21.948 21.948 0 01-.229 3.814z" class="prefix__cls-1" data-name="패스 6" transform="translate(-98.662 -51.293)"/>
        </g>
    </g>
</svg>
